<svg xmlns="http://www.w3.org/2000/svg" width="40" height="40" viewBox="0 0 40 40" fill="black" class="w-10 h-10">
  <path d="M20 0C8.954 0 0 8.954 0 20c0 8.839 5.784 16.346 13.818 19.047.96.178 1.308-.415 1.308-.92 0-.457-.017-1.666-.025-3.272-5.084.954-6.16-2.448-6.16-2.448-.832-2.12-2.03-2.683-2.03-2.683-1.658-1.136.125-1.113.125-1.113 1.832.13 2.79 1.879 2.79 1.879 1.616 2.766 4.248 1.967 5.29 1.496.165-1.171.632-1.967 1.151-2.416-4.232-.482-8.676-2.116-8.676-9.396 0-2.077.743-3.778 1.963-5.106-.197-.482-.852-2.415.189-5.038 0 0 1.594-.518 5.219 1.986 1.507-.419 3.126-.628 4.732-.638 1.606.01 3.225.219 4.732.638 3.625-2.504 5.219-1.986 5.219-1.986 1.04 2.623.386 4.556.189 5.038 1.22 1.328 1.963 3.029 1.963 5.106 0 7.292-4.447 8.914-8.676 9.396.601.516 1.147 1.521 1.147 2.938 0 2.117-.019 3.778-.019 4.29 0 .509.351 1.106 1.322.92C34.216 36.346 40 28.839 40 20c0-11.046-8.954-20-20-20z"/>
</svg>
